<svg width="762" height="291" viewBox="0 0 762 291" fill="none" xmlns="http://www.w3.org/2000/svg">
<g clip-path="url(#clip0_1871_33213)">
<path d="M244.695 173.455C246.5 168.029 248.044 162.103 249.307 155.633L251.884 142.851L266.513 71H154.124L146.173 110.285H208.299L201.882 142.862L198.794 158.503C195.444 174.686 186.742 182.637 172.885 182.637C160.552 182.637 151.067 176.22 143.366 164.419L81 223.154H172.071C195.622 223.154 213.861 217.582 227.081 204.122V223.363H276.989V173.455H244.705H244.695Z" fill="#B791FF"/>
</g>
<path d="M540.471 186.059L523.174 135.141L522.393 148.601L518.277 186.059H494.625L505.097 91.9961H533.125L550.161 143.749L551.098 129.454L555.11 91.9961H578.606L568.655 186.059H540.471Z" fill="white"/>
<path d="M574.961 186.059L584.859 91.9961H650L647.864 113.334H607.105L605.698 126.846H635.967L633.831 148.184H603.51L601.791 164.722H649.742L646.074 186.059H574.961Z" fill="white"/>
<path d="M435.341 186.059L432.684 167.435H409.344L402.259 186.059H377.461L413.981 91.9961H445.604L460.295 186.059H435.341ZM429.662 146.097L427.474 130.759L426.38 121.89L422.994 131.489L417.419 146.097H429.662Z" fill="white"/>
<path d="M313.172 186.059L315.829 164.722H349.327C352.141 164.722 354.224 163.939 355.787 162.374C357.402 160.705 358.392 158.253 358.809 155.122L363.915 113.334H333.281L335.938 91.9961H390.849L383.295 154.862C382.669 159.87 381.471 164.304 379.648 168.113C377.877 172.026 375.48 175.365 372.406 178.077C369.385 180.738 365.686 182.721 361.466 184.129C357.402 185.381 352.714 186.059 347.452 186.059H313.172Z" fill="white"/>
<path d="M463.887 186.059L474.515 91.9961H498.896L488.372 186.059H463.887Z" fill="white"/>
<defs>
<clipPath id="clip0_1871_33213">
<rect width="195.989" height="152.363" fill="white" transform="translate(81 71)"/>
</clipPath>
</defs>
</svg>
